<?xml version="1.0" encoding="UTF-8"?>
<svg version="1.1" xmlns="http://www.w3.org/2000/svg" width="992" height="1056">
<path d="M0 0 C327.36 0 654.72 0 992 0 C992 348.48 992 696.96 992 1056 C664.64 1056 337.28 1056 0 1056 C0 707.52 0 359.04 0 0 Z " fill="#F7F7F7" transform="translate(0,0)"/>
<path d="M0 0 C1.64445032 -0.00374094 3.28889885 -0.00834422 4.9333446 -0.01373065 C9.43297103 -0.02592113 13.93252289 -0.02570486 18.43216205 -0.02334189 C23.29257007 -0.02293273 28.1529545 -0.03398234 33.01335144 -0.04345703 C42.52843672 -0.06004603 52.04349721 -0.06556562 61.55859575 -0.06668179 C69.29517855 -0.0676332 77.03175321 -0.07174817 84.76833344 -0.07808304 C106.71801064 -0.09568927 128.66766832 -0.10492281 150.61735263 -0.10342209 C152.39107125 -0.10330222 152.39107125 -0.10330222 154.20062256 -0.10317993 C155.97651446 -0.10305729 155.97651446 -0.10305729 157.78828296 -0.10293217 C176.97410682 -0.10211932 196.15985217 -0.12125839 215.34565333 -0.14945666 C235.06023945 -0.1782028 254.7747873 -0.19199602 274.4893949 -0.19026911 C285.55174308 -0.18960584 296.61400893 -0.19507085 307.6763382 -0.21662521 C317.09490833 -0.23485968 326.51335881 -0.23916566 335.93193898 -0.22560637 C340.73370848 -0.21908836 345.53524857 -0.21891733 350.33699608 -0.23631287 C354.74024257 -0.25210015 359.14307881 -0.24912259 363.54631564 -0.2317446 C365.13172152 -0.22868713 366.71715846 -0.23225941 368.3025277 -0.24346475 C386.41076721 -0.36288682 402.07960816 4.10377637 415.46282959 16.87289429 C431.48857117 33.69443468 431.58744308 52.20679753 431.15606689 74.17977905 C431.09381976 77.693147 431.06710326 81.20678589 431.03704834 84.72055054 C430.97339778 91.57015863 430.87149614 98.41871367 430.74407959 105.26742554 C431.3370282 104.87048996 431.92997681 104.47355438 432.54089355 104.06459045 C435.26929433 102.23909683 437.9988657 100.41536084 440.72845459 98.59164429 C441.66093018 97.96737549 442.59340576 97.34310669 443.55413818 96.69992065 C448.98320937 93.07460256 454.44307265 89.51571681 459.99407959 86.07992554 C460.66641129 85.66358856 461.33874298 85.24725159 462.03144836 84.81829834 C462.93140785 84.26137802 462.93140785 84.26137802 463.84954834 83.69320679 C474.2054009 77.27042237 484.36901402 70.54218613 494.49334717 63.76229858 C499.85599787 60.17689316 505.28794351 56.70874032 510.74407959 53.26742554 C513.67309209 51.39600782 516.60150027 49.52365276 519.52923584 47.65023804 C525.1871605 44.11777714 531.22493699 44.76314208 537.74407959 45.26742554 C543.7681861 46.92089533 548.29909754 52.26196895 551.74407959 57.26742554 C555.0303169 63.39869613 555.16232084 68.63301126 555.10484314 75.51130676 C555.10740641 76.63618108 555.10996969 77.7610554 555.11261064 78.92001683 C555.11754754 82.68497323 555.10105652 86.44952763 555.08465576 90.21444702 C555.08380947 92.91496177 555.08415261 95.61545199 555.08598328 98.31596375 C555.08755427 104.12775767 555.07816329 109.93945034 555.06126976 115.7512188 C555.03686072 124.15398317 555.02907255 132.55669873 555.02530579 140.95949472 C555.01874429 154.59333468 554.99879132 168.22712071 554.97039795 181.8609314 C554.94284957 195.10279064 554.9216198 208.34463521 554.90887451 221.58651733 C554.90808634 222.40311506 554.90729817 223.21971278 554.90648612 224.06105589 C554.90257093 228.15779688 554.89877982 232.25453798 554.89505041 236.35127914 C554.86396389 270.32336704 554.81113631 304.29538967 554.74407959 338.26742554 C554.08407959 338.26742554 553.42407959 338.26742554 552.74407959 338.26742554 C552.62032959 339.56680054 552.62032959 339.56680054 552.49407959 340.89242554 C550.8550299 348.26814913 546.13589392 352.00621598 540.11907959 356.01742554 C534.71796113 358.01783978 529.14843173 358.45674634 523.63079834 356.52914429 C521.22501235 355.24450128 519.00835299 353.79012468 516.74407959 352.26742554 C515.48650767 351.45513639 514.22723713 350.64547395 512.96673584 349.83773804 C510.04206876 347.95914956 507.12695393 346.06674961 504.21673584 344.16586304 C500.05244745 341.45452666 495.84380695 338.82072725 491.61907959 336.20492554 C485.67777604 332.51903559 479.83599604 328.70564686 474.03436279 324.80404663 C470.49131783 322.42326295 466.92382802 320.0974544 463.30657959 317.82992554 C458.04684884 314.51417873 452.93659317 310.99715005 447.84002686 307.43759155 C443.94310874 304.72914123 439.99028636 302.1316305 435.98236084 299.58969116 C434.99920898 298.96566406 434.01605713 298.34163696 433.00311279 297.69869995 C431.88489136 296.99021912 431.88489136 296.99021912 430.74407959 296.26742554 C430.75074142 296.9821553 430.75740326 297.69688507 430.76426697 298.43327332 C430.8247188 305.2139374 430.87022558 311.9945605 430.89951611 318.77542591 C430.91508166 322.2604262 430.93614987 325.74520129 430.97039795 329.23007202 C431.00964177 333.24905389 431.02386392 337.26780427 431.03704834 341.28695679 C431.0525322 342.52073563 431.06801605 343.75451447 431.08396912 345.02568054 C431.08712649 361.47342295 425.33872934 376.39242156 413.74407959 388.26742554 C399.37204434 400.52782742 385.99625117 403.57150206 367.55267334 403.54830933 C365.90297386 403.55348278 364.25327689 403.55951081 362.60358334 403.56631613 C358.08469405 403.58239059 353.56586841 403.58603159 349.04695392 403.58751106 C344.16737857 403.59122365 339.28783581 403.60632409 334.40827942 403.61978149 C323.74479241 403.64690267 313.08132048 403.6589905 302.41780472 403.66780281 C295.75425144 403.67333543 289.09070392 403.68181155 282.42715454 403.69081116 C263.96276718 403.71519069 245.49838443 403.73579038 227.03398132 403.74256134 C225.85306186 403.74300047 224.67214239 403.7434396 223.45543748 403.74389204 C222.27175905 403.7443286 221.08808061 403.74476515 219.86853313 403.74521494 C217.47011502 403.74610186 215.07169691 403.74699498 212.67327881 403.74789429 C210.88874721 403.74855858 210.88874721 403.74855858 209.06816447 403.74923629 C189.80020265 403.75712874 170.53239228 403.79202864 151.26448894 403.83861333 C131.46290861 403.88610025 111.66140418 403.91096777 91.85976601 403.91329718 C80.74974947 403.91512735 69.63993027 403.92654781 58.52996826 403.9629364 C49.06787233 403.99381944 39.60603474 404.00393187 30.14389795 403.9874602 C25.32140004 403.97967551 20.49942173 403.98136546 15.6769886 404.00957489 C11.2511784 404.03522606 6.82627359 404.03250989 2.4004631 404.00839347 C0.81025642 404.00450898 -0.78001633 404.01049849 -2.37013054 404.02808219 C-16.79163815 404.17729733 -31.2836017 401.31213276 -42.25592041 391.26742554 C-42.83084229 390.83043335 -43.40576416 390.39344116 -43.99810791 389.94320679 C-55.03515308 381.38336509 -61.87644471 367.88015088 -64.25592041 354.26742554 C-64.54275175 350.07519631 -64.53449555 345.89406928 -64.52334595 341.69326782 C-64.52787706 340.43716509 -64.53240817 339.18106235 -64.53707659 337.8868959 C-64.54926271 334.41642662 -64.54905134 330.94605406 -64.54668784 327.47556829 C-64.54627856 323.72628146 -64.55732943 319.97702517 -64.56680298 316.22775269 C-64.58338987 308.8881334 -64.58891148 301.54854624 -64.59002773 294.20890978 C-64.59097931 288.24047247 -64.59509508 282.27204572 -64.60142899 276.30361176 C-64.61903514 259.36770079 -64.62826884 242.43181513 -64.62676804 225.49589494 C-64.62668813 224.58357621 -64.62660821 223.67125748 -64.62652588 222.73129272 C-64.62644412 221.81785511 -64.62636236 220.9044175 -64.62627812 219.96329996 C-64.62546541 205.163526 -64.6446009 190.36385387 -64.67280261 175.56410936 C-64.70155704 160.35382398 -64.7153415 145.14358822 -64.71361506 129.93327498 C-64.71295204 121.39947568 -64.7184057 112.86578312 -64.73997116 104.33200836 C-64.75821668 97.06563847 -64.76250271 89.79942372 -64.74895231 82.53304079 C-64.74243957 78.82920258 -64.74224358 75.12566171 -64.75965881 71.42185211 C-64.7783857 67.3975177 -64.76579104 63.37386634 -64.75039673 59.34951782 C-64.76582742 57.61251629 -64.76582742 57.61251629 -64.78156984 55.84042382 C-64.63961305 38.98875346 -57.03663385 25.89158464 -45.25592041 14.26742554 C-31.52193629 1.88274512 -17.91897295 -0.03877291 0 0 Z " fill="#242323" transform="translate(266.25592041015625,321.7325744628906)"/>
<path d="M0 0 C1.54693542 -0.02376961 1.54693542 -0.02376961 3.12512207 -0.04801941 C4.23552856 -0.05875992 5.34593506 -0.06950043 6.48999023 -0.08056641 C7.6515564 -0.09295853 8.81312256 -0.10535065 10.0098877 -0.11811829 C13.77281528 -0.15052758 17.53554001 -0.16931816 21.29858398 -0.18212891 C22.56918671 -0.18669098 23.83978943 -0.19125305 25.14889526 -0.19595337 C67.5406872 -0.25074441 67.5406872 -0.25074441 85.73608398 8.19287109 C87.09733398 8.62599609 87.09733398 8.62599609 88.48608398 9.06787109 C113.32112392 17.66461569 132.55589607 36.58619086 143.96606445 59.94946289 C146.28561431 64.93261922 148.29770891 70.00504153 150.11108398 75.19287109 C150.34988281 75.85512695 150.58868164 76.51738281 150.8347168 77.19970703 C154.85902178 89.45898631 155.03815535 102.86113061 155.04248047 115.63598633 C155.05013022 117.10156157 155.05856235 118.56713289 155.06770325 120.03269958 C155.08935139 123.95785926 155.09840389 127.8829413 155.10352969 131.80815387 C155.10720247 134.26803205 155.11345652 136.7278907 155.12053108 139.18776131 C155.14490161 147.78932699 155.15805485 156.39083321 155.16162109 164.99243164 C155.1652686 172.98276406 155.19528221 180.97271537 155.23702568 188.9629311 C155.27176245 195.85591952 155.28716995 202.74878141 155.28786713 209.64185673 C155.2886574 213.745051 155.29728412 217.84785344 155.32586479 221.95095634 C155.35211141 225.80331966 155.35421473 229.65496731 155.33820915 233.50737953 C155.33640113 234.91461632 155.34302679 236.32189508 155.35902786 237.72904205 C155.47011334 248.13705536 153.76136757 254.71524238 146.92358398 262.56787109 C139.94160152 268.85165531 131.68291877 268.92804402 122.74389648 268.59912109 C115.41357738 268.05888569 111.69589987 264.381454 106.86108398 259.19287109 C99.65766423 250.43416752 100.58979948 240.32344411 100.59423828 229.4934082 C100.59120247 228.10624074 100.58767985 226.71907428 100.58370972 225.33190918 C100.5758506 222.35382415 100.57068702 219.37575092 100.56741905 216.39765739 C100.56147608 211.67592134 100.54490336 206.95425936 100.52607727 202.2325592 C100.51974053 200.61124711 100.5134149 198.98993496 100.50710011 197.36862278 C100.50393429 196.55684767 100.50076848 195.74507256 100.49750674 194.9086982 C100.45556211 183.92604306 100.42248354 172.94342328 100.41015625 161.96069336 C100.40174118 154.53941322 100.37912472 147.11831792 100.34080058 139.69713026 C100.3211568 135.77872978 100.30859611 131.86060483 100.31363487 127.94215202 C100.31832619 124.24913669 100.30423563 120.55664194 100.27662277 116.86373138 C100.26656305 114.88649767 100.27588689 112.9091939 100.28611755 110.93196106 C100.11397254 94.19259681 94.70453435 79.63681558 83.13842773 67.47412109 C65.00419473 50.25397138 42.6896394 48.67842926 18.99316406 48.80175781 C15.2827538 48.81794013 11.57341573 48.80179386 7.86303711 48.78271484 C5.48868576 48.7846956 3.11433508 48.78853578 0.73999023 48.79443359 C-0.36114609 48.7883609 -1.46228241 48.78228821 -2.5967865 48.77603149 C-9.43352435 48.83847231 -15.1842024 49.11315748 -20.26391602 54.19287109 C-20.71284854 57.6346871 -20.76801242 59.4692541 -18.75805664 62.35449219 C-15.2904097 64.91042225 -12.12787395 64.75899292 -7.98266602 64.73193359 C-7.17333618 64.7437265 -6.36400635 64.75551941 -5.53015137 64.76766968 C-2.94121229 64.80291683 -0.35307505 64.81208526 2.23608398 64.81787109 C22.75627412 64.94995865 44.1227608 65.73075899 60.17358398 80.43115234 C67.68791215 88.90355735 70.03014446 97.78786826 70.05834961 108.79321289 C70.07324432 110.19960777 70.07324432 110.19960777 70.08843994 111.63441467 C70.11752474 114.72033686 70.13126095 117.8060534 70.14233398 120.89208984 C70.15081612 122.48178054 70.15081612 122.48178054 70.1594696 124.1035862 C70.18939239 129.71302911 70.20788918 135.32236998 70.21655273 140.93188477 C70.22750756 146.70071778 70.27554801 152.46860324 70.33249664 158.2371397 C70.36990939 162.69581249 70.38016905 167.15426073 70.38322449 171.61307716 C70.3892436 173.73839301 70.40518513 175.86370652 70.43159485 177.98886681 C70.69024742 200.40371711 70.69024742 200.40371711 63.73608398 209.19287109 C56.35768497 215.58632273 49.56149684 217.61022588 39.89624023 217.44677734 C35.73327185 217.11229904 33.35634503 216.26159169 29.73608398 214.19287109 C28.70483398 213.63599609 27.67358398 213.07912109 26.61108398 212.50537109 C21.68322724 208.54166023 18.72767501 203.15766958 16.73608398 197.19287109 C16.54192277 194.60751296 16.44536802 192.12852965 16.44897461 189.54443359 C16.44214157 188.79095642 16.43530853 188.03747925 16.42826843 187.26116943 C16.41471914 185.63139815 16.40564105 184.00158482 16.40055847 182.37176514 C16.39224636 179.79066278 16.37172089 177.20991032 16.34802246 174.62890625 C16.29170227 168.22020858 16.25642628 161.81142581 16.22039795 155.40258789 C16.18912389 149.98254323 16.14990828 144.5626686 16.10014343 139.14276123 C16.08011077 136.60296325 16.0717633 134.06329791 16.06384277 131.5234375 C16.05086759 129.96272298 16.03734688 128.40201287 16.02319336 126.84130859 C16.02417526 126.13778259 16.02515717 125.43425659 16.02616882 124.70941162 C15.9765261 120.77340532 15.59024878 117.68806037 13.73608398 114.19287109 C8.24913106 109.06376292 4.78367963 106.94569409 -2.7097168 106.9375 C-4.01852814 106.93054108 -5.32733948 106.92358215 -6.67581177 106.91641235 C-7.72199362 106.91743391 -7.72199362 106.91743391 -8.78931046 106.9184761 C-10.98528447 106.91944509 -13.18077392 106.90645286 -15.37667847 106.88949585 C-21.61900006 106.84335592 -27.86127346 106.81865352 -34.10375977 106.81201172 C-37.92763207 106.80696324 -41.75100187 106.78254093 -45.57470322 106.74668503 C-47.0233545 106.73695838 -48.47207557 106.73451567 -49.92074966 106.73985672 C-68.48418046 106.80504653 -68.48418046 106.80504653 -75.10769653 100.41372681 C-76.57641602 98.69287109 -76.57641602 98.69287109 -77.81469727 96.97412109 C-79.28899785 95.01975671 -79.28899785 95.01975671 -81.75610352 93.29443359 C-86.64496432 89.19753778 -88.74452348 83.26265667 -89.54321289 77.00439453 C-89.7200178 74.6453402 -89.79983039 72.30825986 -89.82641602 69.94287109 C-89.84099854 69.1989209 -89.85558105 68.4549707 -89.87060547 67.68847656 C-89.78020593 62.75430558 -88.66079967 59.26079167 -86.24121094 54.96484375 C-85.091363 52.98389334 -85.091363 52.98389334 -84.01391602 49.81787109 C-77.09955097 33.56175752 -58.04318509 18.75845009 -42.13891602 11.69287109 C-41.51758789 11.45568359 -40.89625977 11.21849609 -40.25610352 10.97412109 C-38.12528803 10.1873194 -38.12528803 10.1873194 -35.71313477 8.79443359 C-31.01916893 6.61490246 -26.19650314 5.3801118 -21.20141602 4.06787109 C-19.73091797 3.67148437 -19.73091797 3.67148437 -18.23071289 3.26708984 C-12.12705409 1.63447507 -6.35019912 0.09081313 0 0 Z " fill="#F2727F" transform="translate(401.263916015625,391.80712890625)"/>
<path d="M0 0 C5.91563417 4.99588893 9.56474234 10.71589086 10.34765625 18.421875 C10.67214311 26.70877008 10.04898678 33.24270943 5 40 C2.84319198 42.30911109 0.58819057 44.19484168 -2 46 C-2.845625 46.598125 -3.69125 47.19625 -4.5625 47.8125 C-10.64874095 50.77759175 -18.99211851 51.22392583 -25.46875 49.24609375 C-34.21494754 45.5289598 -38.73030518 40.43129611 -43 32 C-45.52873024 24.39866719 -44.74853752 15.53003274 -41.453125 8.32421875 C-37.46208536 1.94070105 -31.60199274 -2.67473547 -24.3046875 -4.59375 C-15.26264102 -6.18760226 -7.98500968 -4.6560479 0 0 Z " fill="#282828" transform="translate(647,363)"/>
<path d="M0 0 C1.65442657 -0.00087315 3.30885287 -0.00262614 4.9632777 -0.00517833 C9.48994791 -0.00963438 14.01652286 -0.00167221 18.54318094 0.00837779 C23.43193964 0.01703517 28.32069319 0.01409051 33.2094574 0.01257324 C41.67309969 0.01152584 50.13671109 0.01778734 58.60034561 0.02904892 C70.83725424 0.04532054 83.07414798 0.05051363 95.31106625 0.0530249 C115.16587189 0.05739939 135.02066106 0.07070183 154.87545776 0.08963013 C174.15963662 0.10799528 193.44381099 0.12214868 212.72799683 0.13064575 C214.51177283 0.13143392 214.51177283 0.13143392 216.33158471 0.13223802 C222.29752277 0.13484814 228.26346085 0.13737554 234.22939897 0.13986182 C283.70290129 0.16058667 333.17638576 0.19580551 382.64987183 0.24050903 C382.64987183 0.57050903 382.64987183 0.90050903 382.64987183 1.24050903 C304.43987183 1.24050903 226.22987183 1.24050903 145.64987183 1.24050903 C145.31987183 2.23050903 144.98987183 3.22050903 144.64987183 4.24050903 C143.56718018 4.27809326 143.56718018 4.27809326 142.46261597 4.31643677 C139.21233683 4.43202205 135.96237494 4.55491677 132.71237183 4.67800903 C131.57606323 4.71732544 130.43975464 4.75664185 129.26901245 4.79714966 C128.18942261 4.83904419 127.10983276 4.88093872 125.99752808 4.92410278 C124.99729614 4.9607605 123.99706421 4.99741821 122.96652222 5.03518677 C120.68917995 4.98722744 120.68917995 4.98722744 119.64987183 6.24050903 C117.36575881 6.34038445 115.07850094 6.36850939 112.79220581 6.36990356 C112.07292908 6.37165588 111.35365234 6.3734082 110.61257935 6.37521362 C108.20701753 6.37965025 105.80152831 6.37667845 103.39596558 6.37332153 C101.70285529 6.37399631 100.00974509 6.37496779 98.31663513 6.3762207 C94.73768202 6.37770188 91.15875371 6.37553799 87.57980347 6.37088013 C83.09449367 6.36531498 78.60924502 6.3684508 74.12393761 6.37434769 C55.40426837 6.39486025 36.71308868 6.27450325 18.00715637 5.50201416 C16.16753075 5.43033524 16.16753075 5.43033524 14.29074097 5.35720825 C13.21909195 5.3108725 12.14744293 5.26453674 11.0433197 5.21679688 C8.69626551 4.96075967 8.69626551 4.96075967 7.64987183 6.24050903 C5.50428356 6.32826508 3.35582761 6.34746122 1.20846558 6.33816528 C-0.09671021 6.33494263 -1.40188599 6.33171997 -2.74661255 6.32839966 C-4.13528507 6.32004304 -5.52395695 6.31157808 -6.91262817 6.30300903 C-8.30520473 6.29799569 -9.69778299 6.2934325 -11.09036255 6.28933716 C-14.51032688 6.27750337 -17.93020661 6.26101783 -21.35012817 6.24050903 C-21.02012817 5.58050903 -20.69012817 4.92050903 -20.35012817 4.24050903 C-24.95824328 5.01818016 -28.87791325 6.64389385 -33.14309692 8.49832153 C-33.87141724 8.74324341 -34.59973755 8.98816528 -35.35012817 9.24050903 C-36.01012817 8.91050903 -36.67012817 8.58050903 -37.35012817 8.24050903 C-35.73569358 7.26448203 -34.10778824 6.31073328 -32.47512817 5.36550903 C-31.5702063 4.83183716 -30.66528442 4.29816528 -29.73294067 3.74832153 C-20.26729224 -0.47077811 -10.16605692 -0.04002454 0 0 Z " fill="#40403F" transform="translate(266.3501281738281,321.7594909667969)"/>
<path d="M0 0 C5.91563417 4.99588893 9.56474234 10.71589086 10.34765625 18.421875 C10.67214311 26.70877008 10.04898678 33.24270943 5 40 C2.84319198 42.30911109 0.58819057 44.19484168 -2 46 C-2.845625 46.598125 -3.69125 47.19625 -4.5625 47.8125 C-10.64874095 50.77759175 -18.99211851 51.22392583 -25.46875 49.24609375 C-34.21494754 45.5289598 -38.73030518 40.43129611 -43 32 C-45.52873024 24.39866719 -44.74853752 15.53003274 -41.453125 8.32421875 C-37.46208536 1.94070105 -31.60199274 -2.67473547 -24.3046875 -4.59375 C-15.26264102 -6.18760226 -7.98500968 -4.6560479 0 0 Z M-34.375 9.375 C-37.69287136 14.73463836 -38.94431749 20.74837913 -38 27 C-35.80831108 33.96878334 -31.26258669 38.42835679 -25.109375 42.140625 C-20.33449613 44.08594602 -14.55137116 43.79461896 -9.6796875 42.27734375 C-4.0504581 39.63396036 -0.19809881 36.18962887 2.8125 30.6875 C4.843777 24.37985037 4.63694883 19.02100974 2.11328125 12.95703125 C-0.91447617 7.63455241 -5.14908359 3.82466354 -11 2 C-21.05147163 0.7773498 -27.27461528 2.27461528 -34.375 9.375 Z " fill="#F0F1F2" transform="translate(647,363)"/>
<path d="M0 0 C26.02494066 -0.04667325 52.04987508 -0.08196587 78.07484913 -0.10362434 C90.15806793 -0.11394701 102.24126076 -0.12802622 114.32446289 -0.15087891 C124.85335659 -0.17078251 135.38223149 -0.18370923 145.91114348 -0.18817699 C151.48866108 -0.19078951 157.06612487 -0.19695056 162.64362526 -0.21146011 C167.88923305 -0.2249962 173.13476467 -0.22923072 178.38038826 -0.22621536 C180.30936344 -0.22676731 182.23834106 -0.23076833 184.16730118 -0.23841095 C186.79378319 -0.24831006 189.41997477 -0.24598739 192.04646301 -0.24050903 C193.20063971 -0.24924756 193.20063971 -0.24924756 194.37813312 -0.25816262 C198.13555775 -0.2368684 199.79124206 -0.13917196 203 2 C191.8161938 3.01030912 180.72951489 3.13684562 169.51025391 3.11352539 C167.58703106 3.11324272 165.66380811 3.1134028 163.74058533 3.1139679 C158.56181784 3.11425277 153.3830739 3.10840639 148.20431185 3.10139394 C142.77645776 3.09510856 137.34860302 3.09455252 131.92074585 3.09336853 C121.66120121 3.09027042 111.40166732 3.08207767 101.14212739 3.07201904 C89.45399755 3.06081051 77.76586717 3.05533554 66.07773328 3.05032361 C42.05181624 3.03989367 18.02590873 3.02232388 -6 3 C-6 2.67 -6 2.34 -6 2 C-4.02 2 -2.04 2 0 2 C0 1.34 0 0.68 0 0 Z " fill="#2D2D2D" transform="translate(454,323)"/>
<path d="M0 0 C0.66 0.33 1.32 0.66 2 1 C2.02343748 15.52611774 2.04096557 30.05223251 2.05181217 44.57836533 C2.05695219 51.32422267 2.06395079 58.07006821 2.07543945 64.81591797 C2.08634554 71.33224868 2.09229315 77.84856717 2.09487724 84.36490631 C2.09671761 86.84463951 2.10031129 89.32437208 2.10573006 91.80410004 C2.11304307 95.29096394 2.11398664 98.77777803 2.11352539 102.26464844 C2.11712067 103.27813858 2.12071594 104.29162872 2.12442017 105.33583069 C2.11456992 112.26705147 1.6695812 119.10202709 1 126 C0.34 126 -0.32 126 -1 126 C-1.02333786 109.86695153 -1.04098355 93.73390851 -1.05181217 77.60084724 C-1.05697324 70.11035727 -1.06401235 62.61987778 -1.07543945 55.12939453 C-1.08539205 48.60235076 -1.09185481 42.07531458 -1.09408849 35.54826343 C-1.09539462 32.09075092 -1.09847429 28.63326012 -1.10573006 25.17575455 C-1.11375534 21.32045325 -1.11399076 17.46517339 -1.11352539 13.60986328 C-1.11712067 12.45756226 -1.12071594 11.30526123 -1.12442017 10.11804199 C-1.1230455 9.07193756 -1.12167084 8.02583313 -1.12025452 6.94802856 C-1.12117631 6.03545351 -1.1220981 5.12287846 -1.12304783 4.18264961 C-1 2 -1 2 0 0 Z " fill="#121111" transform="translate(817,538)"/>
<path d="M0 0 C1.97765041 3.31172849 2.25201346 5.80771485 2.25828552 9.63928223 C2.26511353 10.78859222 2.27194153 11.93790222 2.27897644 13.12203979 C2.27642349 14.37920807 2.27387054 15.63637634 2.27124023 16.93164062 C2.27562879 18.27235225 2.28093143 19.61306115 2.28707886 20.95376587 C2.29857536 23.84025234 2.30403806 26.72666544 2.30496025 29.61317444 C2.3069043 34.18713012 2.32497902 38.76093496 2.34571838 43.33483887 C2.39487462 54.70239109 2.42571336 66.06998454 2.44702148 77.43762207 C2.46359073 86.26084359 2.48655479 95.08393614 2.53004223 103.90707159 C2.55169314 108.44317922 2.55988807 112.97904113 2.55764949 117.5151968 C2.5593305 120.35436314 2.57346664 123.19337275 2.59086227 126.03248215 C2.59902387 127.95288215 2.59257817 129.8733274 2.585495 131.79373169 C2.64971552 139.59424581 3.75165088 146.52850867 6 154 C2.56021882 151.70681254 2.19521785 150.84177166 1 147 C-0.32788663 140.15461437 -0.13298995 133.30489735 -0.11352539 126.35375977 C-0.11324299 124.97343447 -0.11340228 123.59310902 -0.1139679 122.21278381 C-0.11425382 118.48189907 -0.10839026 114.75104673 -0.10139394 111.0201695 C-0.09512624 107.11508681 -0.0945539 103.21000332 -0.09336853 99.30491638 C-0.09026527 91.91737159 -0.08206546 84.52984166 -0.07201904 77.14230341 C-0.06082665 68.72876028 -0.05533958 60.31521643 -0.05032361 51.90166771 C-0.03988199 34.60110322 -0.02230205 17.30055319 0 0 Z " fill="#BC5058" transform="translate(502,495)"/>
<path d="M0 0 C2.87839991 1.2903172 5.09054786 2.45406381 7 5 C7.35919321 6.99551782 7.69496569 8.99548879 8 11 C8.66 11.33 9.32 11.66 10 12 C10.02497634 17.74340509 10.04298902 23.4867776 10.05493164 29.23022461 C10.05991766 31.17847241 10.06670888 33.12671655 10.07543945 35.07495117 C10.1181589 44.86273125 10.12154086 54.56305215 9.22924805 64.31958008 C8.90303042 68.13379019 8.85222736 71.92419707 8.875 75.75 C8.87113281 76.44609375 8.86726563 77.1421875 8.86328125 77.859375 C8.57897898 81.21436952 8.57897898 81.21436952 10 84 C10.54050028 87.72344639 11 91.24055985 11 95 C7.32944598 91.32944598 6.77420411 87.58071636 6.70991516 82.48345947 C6.71089706 81.77993347 6.71187897 81.07640747 6.71289062 80.3515625 C6.70605759 79.59808533 6.69922455 78.84460815 6.69218445 78.06829834 C6.67863516 76.43852705 6.66955706 74.80871372 6.66447449 73.17889404 C6.65616238 70.59779169 6.6356369 68.01703923 6.61193848 65.43603516 C6.55561828 59.02733749 6.5203423 52.61855472 6.48431396 46.2097168 C6.4530399 40.78967213 6.41382429 35.36979751 6.36405945 29.94989014 C6.34402679 27.41009216 6.33567932 24.87042682 6.32775879 22.33056641 C6.31478361 20.76985189 6.30126289 19.20914178 6.28710938 17.6484375 C6.28809128 16.9449115 6.28907318 16.2413855 6.29008484 15.51654053 C6.20526591 8.79153036 4.3254426 5.0463497 0 0 Z " fill="#D25D66" transform="translate(411,501)"/>
<path d="M0 0 C1.65458221 -0.00642769 1.65458221 -0.00642769 3.34259033 -0.01298523 C5.66198037 -0.01869201 7.98138829 -0.01925598 10.30078125 -0.01489258 C13.80500613 -0.01173955 17.30837949 -0.03521529 20.8125 -0.06054688 C46.28074549 -0.13635331 46.28074549 -0.13635331 55.078125 3.30078125 C56.95605469 5.40893555 56.95605469 5.40893555 58.078125 7.30078125 C56.50369629 6.87526978 56.50369629 6.87526978 54.89746094 6.44116211 C41.56863651 3.1055699 28.65124134 2.71432442 14.95800781 2.83422852 C11.29186855 2.86357144 7.62714768 2.85471293 3.9609375 2.84179688 C1.60936802 2.84802521 -0.74219697 2.85640901 -3.09375 2.8671875 C-4.72192657 2.86278404 -4.72192657 2.86278404 -6.38299561 2.85829163 C-13.16358861 2.94267219 -18.88650777 3.26541402 -23.921875 8.30078125 C-24.08864782 11.88422101 -24.08864782 11.88422101 -23.921875 15.30078125 C-24.581875 15.30078125 -25.241875 15.30078125 -25.921875 15.30078125 C-26.89064122 11.26425532 -27.15234684 8.91153163 -25.671875 4.98828125 C-19.41755596 -1.12389418 -8.28804442 -0.00730818 0 0 Z " fill="#BD5460" transform="translate(404.921875,437.69921875)"/>
<path d="M0 0 C45.88596249 -1.0932237 45.88596249 -1.0932237 63 7 C63 7.33 63 7.66 63 8 C59.64585201 8.02929977 56.29173747 8.0468989 52.9375 8.0625 C51.99455078 8.07087891 51.05160156 8.07925781 50.08007812 8.08789062 C44.9369232 8.10581103 40.06741573 7.89259611 35 7 C35 6.01 35 5.02 35 4 C34.01 3.67 33.02 3.34 32 3 C31.67 3.99 31.34 4.98 31 6 C30.67 5.01 30.34 4.02 30 3 C28.865625 3.020625 27.73125 3.04125 26.5625 3.0625 C23 3 23 3 22 2 C20.36743242 1.84285346 18.72864662 1.74914586 17.08984375 1.68359375 C16.10048828 1.64169922 15.11113281 1.59980469 14.09179688 1.55664062 C13.05087891 1.51732422 12.00996094 1.47800781 10.9375 1.4375 C9.37032227 1.37272461 9.37032227 1.37272461 7.77148438 1.30664062 C5.18113116 1.20018775 2.59067814 1.0981724 0 1 C0 0.67 0 0.34 0 0 Z " fill="#E79699" transform="translate(424,393)"/>
<path d="M0 0 C1 3 1 3 0.3203125 5.05078125 C-3.76871721 12.78786688 -9.68303712 17.26905697 -18 20 C-25.26037775 20.70765707 -31.61201308 20.65027824 -38 17 C-39.0725 16.401875 -40.145 15.80375 -41.25 15.1875 C-44.33323006 12.73493063 -45.52170654 10.61360623 -47 7 C-46.01 6.67 -45.02 6.34 -44 6 C-43.731875 6.763125 -43.46375 7.52625 -43.1875 8.3125 C-42.00646829 10.98536125 -41.21194802 12.16607543 -39 14 C-36.07429567 15.00925459 -33.04379097 15.45865463 -30 16 C-28.845 16.2475 -27.69 16.495 -26.5 16.75 C-19.22081036 17.26994212 -12.87404208 15.26155994 -7 11 C-5.36789786 8.74864368 -4.25453752 6.50907505 -3 4 C-2.02798869 2.64612711 -1.04115841 1.30144802 0 0 Z " fill="#9F484E" transform="translate(469,589)"/>
<path d="M0 0 C1.27617188 0.00483398 1.27617188 0.00483398 2.578125 0.00976562 C3.46757813 0.01814453 4.35703125 0.02652344 5.2734375 0.03515625 C6.170625 0.03966797 7.0678125 0.04417969 7.9921875 0.04882812 C10.21100398 0.06063034 12.42968768 0.0770947 14.6484375 0.09765625 C15.3084375 1.74765625 15.9684375 3.39765625 16.6484375 5.09765625 C11.84551561 7.90310128 7.06715685 7.73866019 1.6484375 7.09765625 C-1.31155735 6.03224339 -3.63933121 4.73522986 -6.3515625 3.09765625 C-6.3515625 2.43765625 -6.3515625 1.77765625 -6.3515625 1.09765625 C-4.00303722 -0.07660639 -2.61382185 -0.01742548 0 0 Z " fill="#1E1F1E" transform="translate(790.3515625,671.90234375)"/>
<path d="M0 0 C1.258125 0.12375 2.51625 0.2475 3.8125 0.375 C4.87404297 0.47941406 4.87404297 0.47941406 5.95703125 0.5859375 C8 1 8 1 11 3 C17.79602526 4.50560801 24.74615705 4.05402978 31.66796875 3.95703125 C33.67291275 3.94037653 35.67785728 3.92374544 37.68281269 3.90852642 C42.6047446 3.87051793 47.52641692 3.82360109 52.44799805 3.75317383 C55.21944649 3.71404872 57.99060875 3.68552202 60.76228333 3.66886902 C63.36780969 3.65288874 65.9732964 3.62125463 68.57841492 3.57246399 C69.75676407 3.56893417 70.93511322 3.56540436 72.14916992 3.56176758 C73.1850676 3.54986893 74.22096527 3.53797028 75.28825378 3.52571106 C78.67136399 4.11742268 79.84565752 5.39973174 82 8 C81.47294464 7.83792557 80.94588928 7.67585114 80.40286255 7.50886536 C77.40874278 6.87478671 74.61620535 6.86740908 71.55419922 6.8581543 C69.59098221 6.84760262 69.59098221 6.84760262 67.58810425 6.83683777 C66.89064968 6.83502188 66.19319511 6.83320599 65.47460556 6.83133507 C63.27872089 6.82413359 61.08305507 6.80843758 58.88723755 6.78999329 C52.64490865 6.73771339 46.40269913 6.68962395 40.16015625 6.67407227 C36.33625149 6.66392378 32.51289841 6.63442556 28.6892128 6.59275246 C27.24057333 6.580532 25.79185562 6.57530464 24.34316635 6.57755089 C16.071067 6.58721647 8.29288674 6.40011711 1 2 C0.67 1.34 0.34 0.68 0 0 Z " fill="#B74F59" transform="translate(327,492)"/>
<path d="M0 0 C2.55426915 3.83140372 3.1260759 6.6608005 3.12025452 11.20147705 C3.12162918 12.03156281 3.12300385 12.86164856 3.12442017 13.71688843 C3.12082489 14.6188797 3.11722961 15.52087097 3.11352539 16.45019531 C3.11367142 17.40662933 3.11381744 18.36306335 3.1139679 19.34848022 C3.11327148 22.50838492 3.10549174 25.6682306 3.09765625 28.828125 C3.09579111 31.01959196 3.09436766 33.21105933 3.09336853 35.40252686 C3.08955094 41.16960807 3.07972709 46.93666409 3.06866455 52.70373535 C3.05843416 58.5889451 3.05386742 64.47415892 3.04882812 70.359375 C3.03810417 81.90626107 3.02103681 93.45312844 3 105 C2.67 105 2.34 105 2 105 C1.67 97.74 1.34 90.48 1 83 C0.01 83.495 0.01 83.495 -1 84 C-0.67501022 83.48157028 -0.35002045 82.96314056 -0.0151825 82.42900085 C1.32510487 79.22212999 1.24694071 76.61115213 1.24291992 73.13598633 C1.24481827 72.45425858 1.24671661 71.77253082 1.24867249 71.07014465 C1.25236786 68.82398871 1.2416966 66.57815829 1.23046875 64.33203125 C1.22927646 62.77072691 1.22882389 61.20942184 1.2290802 59.64811707 C1.22751765 56.38068128 1.21924326 53.11335541 1.20581055 49.84594727 C1.18877878 45.64909582 1.18499752 41.45236464 1.18575573 37.25548267 C1.18548446 34.03426456 1.18001095 30.81307295 1.17275429 27.59186363 C1.16956392 26.043639 1.16759936 24.49541135 1.16686058 22.94718361 C1.16470327 20.79001311 1.15597368 18.63297281 1.14526367 16.47583008 C1.14145187 15.24657303 1.13764008 14.01731598 1.13371277 12.75080872 C1.31312505 10.08914439 1.31312505 10.08914439 0 9 C-0.07179964 7.48071962 -0.08392007 5.95832518 -0.0625 4.4375 C-0.05347656 3.61121094 -0.04445313 2.78492188 -0.03515625 1.93359375 C-0.02355469 1.29550781 -0.01195312 0.65742188 0 0 Z " fill="#D76669" transform="translate(468,484)"/>
<path d="M0 0 C8.92653895 1.15181148 17.24501542 6.27448071 24 12 C24 12.66 24 13.32 24 14 C17.68807339 15.33521524 17.68807339 15.33521524 14.5625 13.8125 C13 12 13 12 13 8 C11.2508503 7.66223316 9.50063855 7.32996329 7.75 7 C6.77546875 6.814375 5.8009375 6.62875 4.796875 6.4375 C1.81315721 5.89696983 1.81315721 5.89696983 -2 6 C-1.67 5.01 -1.34 4.02 -1 3 C-0.01 3 0.98 3 2 3 C2 2.34 2 1.68 2 1 C1.34 0.67 0.68 0.34 0 0 Z " fill="#EFA4A7" transform="translate(490,402)"/>
<path d="M0 0 C4.94599178 8.47884305 4.26525549 17.97958168 4.1953125 27.4375 C4.19157647 28.92822072 4.18873229 30.41894391 4.18673706 31.90966797 C4.17914703 35.80917288 4.15953904 39.70852581 4.1373291 43.60797119 C4.11677022 47.59669947 4.10771399 51.58545261 4.09765625 55.57421875 C4.07628817 63.38288134 4.04220906 71.19141927 4 79 C3.67 79 3.34 79 3 79 C2.67 59.2 2.34 39.4 2 19 C1.67 19 1.34 19 1 19 C0.17648136 12.61773055 -0.12086218 6.43255401 0 0 Z " fill="#332C25" transform="translate(498,480)"/>
<path d="M0 0 C0.66 0 1.32 0 2 0 C0.69411166 5.9490469 -2.34729072 9.31505425 -7 13 C-14.33414046 17.21033989 -23.74216643 17.16241788 -32 16 C-35.24769912 14.83249618 -37.51198696 13.36730081 -40 11 C-40.825 10.236875 -41.65 9.47375 -42.5 8.6875 C-42.995 8.130625 -43.49 7.57375 -44 7 C-43.67 6.34 -43.34 5.68 -43 5 C-42.29423828 5.61488281 -42.29423828 5.61488281 -41.57421875 6.2421875 C-40.95160156 6.78101563 -40.32898438 7.31984375 -39.6875 7.875 C-39.07261719 8.40867187 -38.45773437 8.94234375 -37.82421875 9.4921875 C-33.69681299 12.9037049 -31.04251842 13.36594261 -25.75 13.6875 C-23.82414063 13.81705078 -23.82414063 13.81705078 -21.859375 13.94921875 C-18.04972164 13.99934577 -14.73860303 13.64408576 -11 13 C-11 12.34 -11 11.68 -11 11 C-9.35 10.67 -7.7 10.34 -6 10 C-6 9.34 -6 8.68 -6 8 C-5.34 8 -4.68 8 -4 8 C-3.71125 7.236875 -3.4225 6.47375 -3.125 5.6875 C-2 3 -2 3 0 0 Z " fill="#BE505A" transform="translate(552,644)"/>
<path d="M0 0 C7.34403216 0.27713329 12.92858469 2.89106236 19 7 C19.99 8.485 19.99 8.485 21 10 C15.70769231 12.21538462 15.70769231 12.21538462 12.125 11.125 C11.42375 10.75375 10.7225 10.3825 10 10 C10 9.01 10 8.02 10 7 C9.01 6.67 8.02 6.34 7 6 C6.67 5.34 6.34 4.68 6 4 C4.02111039 3.27306096 2.02045442 2.60183749 0 2 C0 1.34 0 0.68 0 0 Z " fill="#F59499" transform="translate(437,461)"/>
<path d="M0 0 C2.6045056 3.84139436 2.12497248 7.70292109 1.8125 12.125 C1.76512695 13.21748047 1.76512695 13.21748047 1.71679688 14.33203125 C1.58203125 16.4453125 1.58203125 16.4453125 1 20 C0.01 20.66 -0.98 21.32 -2 22 C-4.49578009 17.00843983 -4.86965273 12.0649956 -3.359375 6.7421875 C-1.40995763 1.40995763 -1.40995763 1.40995763 0 0 Z " fill="#343332" transform="translate(613,373)"/>
<path d="M0 0 C0.33 0 0.66 0 1 0 C1.00586624 0.54964417 1.01173248 1.09928833 1.01777649 1.66558838 C1.08224542 7.44209382 1.16679482 13.21806935 1.26245117 18.99414062 C1.2954857 21.14315761 1.32358275 23.29225688 1.34643555 25.44140625 C1.35901551 41.9750309 1.35901551 41.9750309 5 58 C1.60284316 55.73522877 1.16105618 54.79637382 0 51 C-0.24050903 48.46257019 -0.24050903 48.46257019 -0.22705078 45.75073242 C-0.22689972 44.73005173 -0.22674866 43.70937103 -0.22659302 42.65776062 C-0.21627045 41.5680043 -0.20594788 40.47824799 -0.1953125 39.35546875 C-0.1924826 38.2305452 -0.18965271 37.10562164 -0.18673706 35.9466095 C-0.17555836 32.36013064 -0.15045763 28.77390315 -0.125 25.1875 C-0.11496723 22.75325882 -0.1058419 20.31901372 -0.09765625 17.88476562 C-0.07562656 11.92309158 -0.04217174 5.96156375 0 0 Z " fill="#E45D6B" transform="translate(503,591)"/>
<path d="M0 0 C2.68662727 0.73310176 4.56967385 1.6112422 7 3 C7 3.33 7 3.66 7 4 C3.56257082 4.05802698 0.12526747 4.09360486 -3.3125 4.125 C-4.28896484 4.14175781 -5.26542969 4.15851563 -6.27148438 4.17578125 C-7.20927734 4.18222656 -8.14707031 4.18867188 -9.11328125 4.1953125 C-9.97735596 4.20578613 -10.84143066 4.21625977 -11.73168945 4.22705078 C-14 4 -14 4 -17 2 C-11.92806449 -1.38129034 -5.92845381 -0.4596217 0 0 Z " fill="#F8A7AC" transform="translate(480,397)"/>
<path d="M0 0 C1 3 1 3 0.3203125 5.05078125 C-2.88993655 11.12507602 -6.53030468 15.35330646 -13 18 C-16.40567072 18.44112448 -19.59253883 18.38413967 -23 18 C-23 17.67 -23 17.34 -23 17 C-22.14728516 16.85304688 -22.14728516 16.85304688 -21.27734375 16.703125 C-15.49056501 15.58248003 -9.45540376 14.38703606 -5.78515625 9.32421875 C-4.79666729 7.58224009 -3.89572318 5.79144636 -3 4 C-2.02798869 2.64612711 -1.04115841 1.30144802 0 0 Z " fill="#C5525A" transform="translate(469,589)"/>
<path d="M0 0 C1.60488281 0.00483398 1.60488281 0.00483398 3.2421875 0.00976562 C4.35335938 0.01814453 5.46453125 0.02652344 6.609375 0.03515625 C8.29933594 0.04192383 8.29933594 0.04192383 10.0234375 0.04882812 C12.80213717 0.06060228 15.58072909 0.07704785 18.359375 0.09765625 C15.15458964 2.23417982 14.4446458 2.31039393 10.796875 2.16015625 C7.44707638 1.98053305 7.44707638 1.98053305 4.359375 3.09765625 C1.64177392 3.16947446 -1.04921888 3.19065131 -3.765625 3.16015625 C-4.51972656 3.15564453 -5.27382813 3.15113281 -6.05078125 3.14648438 C-7.91409627 3.13469124 -9.77737055 3.11675567 -11.640625 3.09765625 C-8.22659265 -0.3163761 -4.66158175 -0.02479565 0 0 Z " fill="#EC9FA0" transform="translate(404.640625,392.90234375)"/>
<path d="M0 0 C2.70863889 0.38694841 5.09150945 1.03463612 7.65234375 2.00390625 C11.6126221 3.18228545 15.26834046 3.44677246 19.375 3.625 C20.47908203 3.68300781 20.47908203 3.68300781 21.60546875 3.7421875 C23.40327406 3.83557998 25.20160108 3.9188371 27 4 C27 4.33 27 4.66 27 5 C18.97875848 5.71413279 11.05358138 6.14525497 3 6 C2.67 5.01 2.34 4.02 2 3 C1.01 2.34 0.02 1.68 -1 1 C-0.67 0.67 -0.34 0.34 0 0 Z " fill="#D6D5D4" transform="translate(238,721)"/>
<path d="M0 0 C1.051875 -0.00257813 2.10375 -0.00515625 3.1875 -0.0078125 C6 0.125 6 0.125 9 1.125 C9 1.785 9 2.445 9 3.125 C5.96693887 4.13602038 3.74059761 4.3232535 0.5625 4.375 C-0.38496094 4.40078125 -1.33242188 4.4265625 -2.30859375 4.453125 C-5.3902834 4.07741828 -6.71972555 3.1734735 -9 1.125 C-5.77717587 0.05072529 -3.38488847 -0.0082963 0 0 Z " fill="#2E2E2D" transform="translate(629,401.875)"/>
<path d="M0 0 C1.258125 0.12375 2.51625 0.2475 3.8125 0.375 C4.87404297 0.47941406 4.87404297 0.47941406 5.95703125 0.5859375 C8 1 8 1 11 3 C13.31645338 3.4561825 13.31645338 3.4561825 15.88671875 3.6328125 C16.82451172 3.71660156 17.76230469 3.80039062 18.72851562 3.88671875 C19.70498047 3.96535156 20.68144531 4.04398437 21.6875 4.125 C22.67556641 4.21136719 23.66363281 4.29773438 24.68164062 4.38671875 C27.12054315 4.59879723 29.55984788 4.80291201 32 5 C32 5.33 32 5.66 32 6 C8.02436165 6.86029064 8.02436165 6.86029064 1 2 C0.67 1.34 0.34 0.68 0 0 Z " fill="#A54850" transform="translate(327,492)"/>
<path d="M0 0 C1.66611905 -0.042721 3.33382885 -0.04063832 5 0 C5.33 0.33 5.66 0.66 6 1 C8.62928475 1.13540645 11.23602287 1.21055786 13.8671875 1.24609375 C15.49089076 1.27903447 17.11458855 1.31224608 18.73828125 1.34570312 C21.30806671 1.39312793 23.8778303 1.43754324 26.44775391 1.47680664 C28.92113838 1.51650059 31.39405828 1.56805569 33.8671875 1.62109375 C35.02044022 1.63371498 35.02044022 1.63371498 36.19699097 1.64659119 C39.97785883 1.73431157 41.77918793 1.85279196 45 4 C39.07306763 3.93121916 33.14684724 3.84329958 27.22045898 3.73754883 C25.20393765 3.7042729 23.18732258 3.67624932 21.1706543 3.65356445 C18.273519 3.62006744 15.37724482 3.56775456 12.48046875 3.51171875 C11.57725388 3.50532883 10.674039 3.4989389 9.74345398 3.49235535 C8.4824865 3.46266411 8.4824865 3.46266411 7.19604492 3.43237305 C6.45658127 3.42126999 5.71711761 3.41016693 4.95524597 3.39872742 C2.50053167 2.89814493 1.58600379 1.88741822 0 0 Z " fill="#4C3837" transform="translate(382,454)"/>
<path d="M0 0 C-0.33 0.66 -0.66 1.32 -1 2 C-3.109375 2.52734375 -3.109375 2.52734375 -5.75 2.9375 C-10.14856884 3.73037507 -13.74749405 4.74749405 -17 8 C-17.04092937 10.33297433 -17.04241723 12.66705225 -17 15 C-17.66 15 -18.32 15 -19 15 C-19.96876622 10.96347407 -20.23047184 8.61075038 -18.75 4.6875 C-13.735821 -0.21272039 -6.75099804 -0.12252265 0 0 Z " fill="#CE5B6A" transform="translate(398,438)"/>
<path d="M0 0 C5.75 1.875 5.75 1.875 8 3 C9.7895469 3.09657872 11.58285534 3.12980468 13.375 3.125 C14.33148437 3.12757813 15.28796875 3.13015625 16.2734375 3.1328125 C18.68140854 3.01551878 20.69990068 2.68675951 23 2 C23 2.99 23 3.98 23 5 C15.08 5 7.16 5 -1 5 C-0.67 3.35 -0.34 1.7 0 0 Z " fill="#CFCFCE" transform="translate(784,675)"/>
<path d="M0 0 C0.99 0.33 1.98 0.66 3 1 C3.05429278 3.70860665 3.09381211 6.41610901 3.125 9.125 C3.15013672 10.26582031 3.15013672 10.26582031 3.17578125 11.4296875 C3.21546246 16.03270731 2.75907577 19.66464004 1 24 C0.67 24 0.34 24 0 24 C-0.02707139 21.75006641 -0.04642829 19.50003905 -0.0625 17.25 C-0.07410156 15.99703125 -0.08570313 14.7440625 -0.09765625 13.453125 C-0.01910107 10.675414 0.29468895 8.63316126 1 6 C0.72949547 3.99053778 0.40632091 1.98645776 0 0 Z " fill="#1B1A19" transform="translate(816,484)"/>
<path d="M0 0 C6.93 0 13.86 0 21 0 C21 0.66 21 1.32 21 2 C20.34 2 19.68 2 19 2 C18.67 2.66 18.34 3.32 18 4 C17.01 3.67 16.02 3.34 15 3 C12.26134713 2.92948886 9.54972412 2.90642235 6.8125 2.9375 C5.68811523 2.94426758 5.68811523 2.94426758 4.54101562 2.95117188 C2.69397617 2.96293646 0.84697787 2.98087135 -1 3 C-0.67 2.01 -0.34 1.02 0 0 Z " fill="#171716" transform="translate(620,400)"/>
<path d="M0 0 C3.25082106 4.87623159 3.13867506 9.08165051 3.09765625 14.828125 C3.0962413 15.57713074 3.09482635 16.32613647 3.09336853 17.09783936 C3.08778659 19.48193412 3.07523745 21.86593378 3.0625 24.25 C3.05748266 25.86979031 3.05292016 27.48958209 3.04882812 29.109375 C3.03782308 33.07295312 3.02057091 37.03646045 3 41 C2.67 41 2.34 41 2 41 C1.97494385 40.06615479 1.9498877 39.13230957 1.92407227 38.17016602 C1.82913072 34.71674811 1.72988742 31.2635104 1.62768555 27.81030273 C1.58428187 26.31360731 1.54261087 24.81686061 1.50268555 23.32006836 C1.44511384 21.17285688 1.38138284 19.02590479 1.31640625 16.87890625 C1.27974854 15.5854126 1.24309082 14.29191895 1.20532227 12.95922852 C1.3332722 10.11444992 1.3332722 10.11444992 0 9 C-0.07179964 7.48071962 -0.08392007 5.95832518 -0.0625 4.4375 C-0.05347656 3.61121094 -0.04445313 2.78492188 -0.03515625 1.93359375 C-0.02355469 1.29550781 -0.01195312 0.65742188 0 0 Z " fill="#D86B6D" transform="translate(468,484)"/>
<path d="M0 0 C0.33 0 0.66 0 1 0 C1 7.92 1 15.84 1 24 C-0.32 23.67 -1.64 23.34 -3 23 C-2.505 21.515 -2.505 21.515 -2 20 C-1.86555121 18.5318053 -1.77641467 17.05914724 -1.71875 15.5859375 C-1.68136719 14.74289062 -1.64398437 13.89984375 -1.60546875 13.03125 C-1.53484654 11.25261644 -1.46453674 9.47397044 -1.39453125 7.6953125 C-1.35714844 6.85484375 -1.31976562 6.014375 -1.28125 5.1484375 C-1.25095703 4.37677246 -1.22066406 3.60510742 -1.18945312 2.81005859 C-1 1 -1 1 0 0 Z " fill="#181716" transform="translate(615,373)"/>
<path d="M0 0 C0.99773437 0.02320313 1.99546875 0.04640625 3.0234375 0.0703125 C4.52777344 0.09738281 4.52777344 0.09738281 6.0625 0.125 C6.83335937 0.14820313 7.60421875 0.17140625 8.3984375 0.1953125 C7.7384375 1.5153125 7.0784375 2.8353125 6.3984375 4.1953125 C3.0984375 4.1953125 -0.2015625 4.1953125 -3.6015625 4.1953125 C-3.9315625 3.5353125 -4.2615625 2.8753125 -4.6015625 2.1953125 C-2.6015625 0.1953125 -2.6015625 0.1953125 0 0 Z " fill="#131413" transform="translate(260.6015625,719.8046875)"/>
<path d="M0 0 C2.475 0.99 2.475 0.99 5 2 C4.01 3.485 4.01 3.485 3 5 C2.1505188 7.70984159 1.83359983 10.280689 1.68359375 13.109375 C1.64169922 13.86347656 1.59980469 14.61757813 1.55664062 15.39453125 C1.51732422 16.17183594 1.47800781 16.94914063 1.4375 17.75 C1.39431641 18.54277344 1.35113281 19.33554687 1.30664062 20.15234375 C1.20097009 22.10137815 1.10002034 24.05066748 1 26 C0.67 26 0.34 26 0 26 C0 17.42 0 8.84 0 0 Z " fill="#C4C6C5" transform="translate(697,618)"/>
<path d="M0 0 C3.46425559 6.57917449 4.2610509 12.69057482 4 20 C3.01 19.67 2.02 19.34 1 19 C0.17648136 12.61773055 -0.12086218 6.43255401 0 0 Z " fill="#433432" transform="translate(498,480)"/>
<path d="M0 0 C0.33 0 0.66 0 1 0 C1 1.65 1 3.3 1 5 C1.66 5 2.32 5 3 5 C3.12375 5.969375 3.2475 6.93875 3.375 7.9375 C3.58125 8.948125 3.7875 9.95875 4 11 C4.66 11.33 5.32 11.66 6 12 C2.25 15 2.25 15 0 15 C0 10.05 0 5.1 0 0 Z " fill="#D0D0D1" transform="translate(697,412)"/>
<path d="M0 0 C0 0.66 0 1.32 0 2 C-1.423125 2.37125 -1.423125 2.37125 -2.875 2.75 C-7.02249012 3.91197576 -10.91589648 5.58223385 -14.86328125 7.29296875 C-17 8 -17 8 -19 7 C-17.25318707 6.01515892 -15.5024149 5.03733813 -13.75 4.0625 C-12.28820312 3.24458984 -12.28820312 3.24458984 -10.796875 2.41015625 C-6.84012349 0.41520193 -4.45995353 0 0 0 Z " fill="#3D3D3C" transform="translate(248,323)"/>
<path d="M0 0 C0.91007813 0.00902344 1.82015625 0.01804687 2.7578125 0.02734375 C3.45648437 0.03894531 4.15515625 0.05054688 4.875 0.0625 C1.87119896 3.47966815 -0.60770706 3.7339696 -5.125 4.0625 C-5.785 3.7325 -6.445 3.4025 -7.125 3.0625 C-7.125 2.4025 -7.125 1.7425 -7.125 1.0625 C-4.60024538 -0.19987731 -2.81299534 -0.03606404 0 0 Z " fill="#0F100F" transform="translate(791.125,671.9375)"/>
<path d="M0 0 C3.63 1.98 7.26 3.96 11 6 C8.24921116 6.91692961 6.64051087 7.10886083 3.8125 7.0625 C1.9253125 7.0315625 1.9253125 7.0315625 0 7 C-0.33 6.34 -0.66 5.68 -1 5 C-0.01 4.34 0.98 3.68 2 3 C1.34 2.67 0.68 2.34 0 2 C0 1.34 0 0.68 0 0 Z " fill="#C5C7C6" transform="translate(769,665)"/>
<path d="M0 0 C0.99 0.33 1.98 0.66 3 1 C-4.29840547 9.44646925 -4.29840547 9.44646925 -8 13 C-7.48118887 8.8275894 -6.28848726 6.74583179 -3.4375 3.6875 C-2.79683594 2.99011719 -2.15617187 2.29273438 -1.49609375 1.57421875 C-1.00238281 1.05472656 -0.50867188 0.53523438 0 0 Z " fill="#D0757B" transform="translate(330,425)"/>
<path d="M0 0 C0.66 0 1.32 0 2 0 C2.268125 0.763125 2.53625 1.52625 2.8125 2.3125 C3.99827525 4.99609663 4.6814786 6.26110895 7 8 C10.10007201 9.20049407 10.10007201 9.20049407 13 10 C13 10.33 13 10.66 13 11 C8.7476422 10.74986131 6.52435219 10.43113402 3.1875 7.6875 C1.38344575 5.4710905 0.07052211 3.62764517 -1 1 C-0.67 0.67 -0.34 0.34 0 0 Z " fill="#BB535D" transform="translate(423,595)"/>
<path d="M0 0 C-0.33 1.98 -0.66 3.96 -1 6 C-5.75 4.125 -5.75 4.125 -8 3 C-8 2.34 -8 1.68 -8 1 C-5.23735711 0.40267181 -2.83967231 0 0 0 Z " fill="#0B0C0B" transform="translate(768,656)"/>
<path d="M0 0 C4.29 0 8.58 0 13 0 C13.33 0.66 13.66 1.32 14 2 C12.68 2 11.36 2 10 2 C9.67 2.99 9.34 3.98 9 5 C8.67 4.01 8.34 3.02 8 2 C5.69 2 3.38 2 1 2 C0.67 1.34 0.34 0.68 0 0 Z " fill="#F5A2A6" transform="translate(446,394)"/>
<path d="M0 0 C0.66 0.33 1.32 0.66 2 1 C2 3.64 2 6.28 2 9 C0.0625 8.25 0.0625 8.25 -2 7 C-2.75 4.875 -2.75 4.875 -3 3 C-2.34 3 -1.68 3 -1 3 C-0.67 2.01 -0.34 1.02 0 0 Z " fill="#181918" transform="translate(214,694)"/>
<path d="M0 0 C-3.52127761 4.5929708 -7.57747597 5.11941917 -13 6 C-9.80729883 1.21094825 -5.711123 -0.50392262 0 0 Z " fill="#EFA9AE" transform="translate(378,398)"/>
<path d="M0 0 C0.33 0 0.66 0 1 0 C1.66 5.61 2.32 11.22 3 17 C1.35 16.67 -0.3 16.34 -2 16 C-1.34 10.72 -0.68 5.44 0 0 Z " fill="#454645" transform="translate(602,380)"/>
<path d="M0 0 C2.6875 -0.3125 2.6875 -0.3125 5 0 C5 0.66 5 1.32 5 2 C5.99 2.33 6.98 2.66 8 3 C4.37 3.66 0.74 4.32 -3 5 C-1.8125 2.5 -1.8125 2.5 0 0 Z " fill="#342F2C" transform="translate(379,392)"/>
<path d="M0 0 C8.57142857 0.71428571 8.57142857 0.71428571 12 4 C3.73913043 4.15886288 3.73913043 4.15886288 1 3 C0.67 2.01 0.34 1.02 0 0 Z " fill="#E79A9D" transform="translate(475,397)"/>
<path d="M0 0 C1.32 0 2.64 0 4 0 C4.33 1.65 4.66 3.3 5 5 C3.35 5.33 1.7 5.66 0 6 C0 4.02 0 2.04 0 0 Z " fill="#EE9C9F" transform="translate(536,442)"/>
<path d="M0 0 C0.33 0 0.66 0 1 0 C1 2.97 1 5.94 1 9 C-0.65 9.66 -2.3 10.32 -4 11 C-2.7874262 7.27566618 -1.49140021 3.62197194 0 0 Z " fill="#BEBFBD" transform="translate(693,688)"/>
<path d="M0 0 C2.69282475 4.03923713 3.13300939 6.95536152 3.0625 11.75 C3.05347656 12.54921875 3.04445313 13.3484375 3.03515625 14.171875 C3.01775391 15.07679688 3.01775391 15.07679688 3 16 C2.67 16 2.34 16 2 16 C0.13216954 10.51324804 -0.2358396 5.77807024 0 0 Z " fill="#B36663" transform="translate(468,484)"/>
<path d="M0 0 C0.99 1.32 1.98 2.64 3 4 C1.75453595 7.73639216 0.36595047 8.18756513 -3 10 C-2.01 6.7 -1.02 3.4 0 0 Z " fill="#C7C7C6" transform="translate(819,660)"/>
<path d="M0 0 C0.66 0 1.32 0 2 0 C2.99 3.96 3.98 7.92 5 12 C1.61053312 9.74035542 1.14663284 8.79270862 0 5 C-0.125 2.1875 -0.125 2.1875 0 0 Z " fill="#BE4E5A" transform="translate(503,637)"/>
<path d="M0 0 C7.50769231 0.61538462 7.50769231 0.61538462 10 2.5625 C10.33 3.036875 10.66 3.51125 11 4 C3.49230769 3.38461538 3.49230769 3.38461538 1 1.4375 C0.67 0.963125 0.34 0.48875 0 0 Z " fill="#B55058" transform="translate(327,492)"/>
<path d="M0 0 C1.65 0 3.3 0 5 0 C5 1.65 5 3.3 5 5 C3.68 4.67 2.36 4.34 1 4 C0.67 2.68 0.34 1.36 0 0 Z " fill="#111111" transform="translate(723,632)"/>
<path d="M0 0 C0 0.99 0 1.98 0 3 C-4.95 3 -9.9 3 -15 3 C-15 2.67 -15 2.34 -15 2 C-14.22914063 1.93941406 -13.45828125 1.87882813 -12.6640625 1.81640625 C-11.15972656 1.69072266 -11.15972656 1.69072266 -9.625 1.5625 C-8.62726562 1.48128906 -7.62953125 1.40007813 -6.6015625 1.31640625 C-4.12756995 1.01551526 -2.44698344 0 0 0 Z " fill="#D6D5D4" transform="translate(807,677)"/>
<path d="M0 0 C0.66 0.33 1.32 0.66 2 1 C0.515 3.475 0.515 3.475 -1 6 C-2.65 5.67 -4.3 5.34 -6 5 C-2.25 1.125 -2.25 1.125 0 0 Z " fill="#E89FA6" transform="translate(363,402)"/>
<path d="M0 0 C3.70129644 0.38961015 5.61879622 1.11749016 8 4 C4.85375007 4.26218749 3.38162983 4.24754367 0.6875 2.5 C0.130625 2.005 -0.42625 1.51 -1 1 C-0.67 0.67 -0.34 0.34 0 0 Z " fill="#BCBBBA" transform="translate(238,721)"/>
<path d="M0 0 C1.32 0.66 2.64 1.32 4 2 C1.69 3.32 -0.62 4.64 -3 6 C-2.42655063 3.13275314 -2.1385485 2.1385485 0 0 Z " fill="#E1E2E2" transform="translate(722,407)"/>
<path d="M0 0 C2.64 0.33 5.28 0.66 8 1 C6 3 6 3 3.375 3.125 C2.59125 3.08375 1.8075 3.0425 1 3 C0.67 2.01 0.34 1.02 0 0 Z " fill="#F2838A" transform="translate(437,461)"/>
<path d="M0 0 C0.66 0.33 1.32 0.66 2 1 C2 1.99 2 2.98 2 4 C-0.64 4.33 -3.28 4.66 -6 5 C-4.06745228 2.9754262 -2.36841312 1.57894208 0 0 Z " fill="#C9838A" transform="translate(357,404)"/>
<path d="M0 0 C0 1.32 0 2.64 0 4 C-1.65 3.67 -3.3 3.34 -5 3 C-5 2.34 -5 1.68 -5 1 C-3 0 -3 0 0 0 Z " fill="#161616" transform="translate(752,648)"/>
<path d="M0 0 C0.33 0.99 0.66 1.98 1 3 C-0.4375 5.6875 -0.4375 5.6875 -2 8 C-2.66 7.67 -3.32 7.34 -4 7 C-1.125 1.125 -1.125 1.125 0 0 Z " fill="#D55F67" transform="translate(469,589)"/>
<path d="M0 0 C2.97 1.98 2.97 1.98 6 4 C4.02 4.99 4.02 4.99 2 6 C0 2.25 0 2.25 0 0 Z " fill="#E6888D" transform="translate(452,466)"/>
<path d="M0 0 C0 0.66 0 1.32 0 2 C-1.28745036 2.38922918 -2.58019597 2.76098036 -3.875 3.125 C-4.59429687 3.33382813 -5.31359375 3.54265625 -6.0546875 3.7578125 C-6.69664062 3.83773438 -7.33859375 3.91765625 -8 4 C-8.66 3.34 -9.32 2.68 -10 2 C-6.38026598 0.68373308 -3.90432869 0 0 0 Z " fill="#636362" transform="translate(248,323)"/>
</svg>
